<?xml version="1.0" ?>
<!-- Uploaded to: SVG Repo, www.svgrepo.com, Generator: SVG Repo Mixer Tools -->
<svg width="800px" height="800px" viewBox="0 0 20 20" version="1.1" xmlns="http://www.w3.org/2000/svg">
<g id="layer1">
<path d="M 10.5 0.052734375 L 7.0175781 1.4941406 L 6.6582031 0.61523438 L 3.9902344 3.2832031 L 3.3203125 2.609375 L 1.8769531 6.09375 L 1 5.734375 L 1 9.5 L 0.052734375 9.5 L 1.4941406 12.982422 L 0.61523438 13.341797 L 3.28125 16.011719 L 2.6132812 16.679688 L 6.09375 18.123047 L 5.734375 19 L 9.5 19 L 9.5 19.947266 L 12.980469 18.505859 L 13.34375 19.382812 L 16.009766 16.716797 L 16.681641 17.384766 L 18.123047 13.90625 L 19 14.265625 L 19 10.5 L 19.947266 10.5 L 18.505859 7.0175781 L 19.384766 6.6582031 L 16.716797 3.9902344 L 17.388672 3.3183594 L 13.904297 1.8769531 L 14.267578 1 L 10.5 1 L 10.5 0.052734375 z M 9.5 1.5507812 L 9.5 2 L 12.771484 2 L 12.597656 2.4179688 L 15.623047 3.6699219 L 15.300781 3.9921875 L 17.615234 6.3027344 L 17.197266 6.4746094 L 17.390625 6.9375 L 18.451172 9.5 L 18 9.5 L 18 12.773438 L 17.580078 12.601562 L 16.328125 15.625 L 16.007812 15.304688 L 13.695312 17.617188 L 13.521484 17.199219 L 10.5 18.449219 L 10.5 18 L 7.2265625 18 L 7.3984375 17.580078 L 4.3769531 16.330078 L 4.6953125 16.011719 L 2.3847656 13.697266 L 2.8027344 13.525391 L 1.5507812 10.5 L 2 10.5 L 2 7.2265625 L 2.4199219 7.3984375 L 3.6699219 4.3789062 L 3.9882812 4.6992188 L 6.3027344 2.3847656 L 6.4746094 2.8027344 L 9.5 1.5507812 z M 9.8964844 8.0019531 L 9.4980469 8.0605469 L 9.1191406 8.2011719 L 8.7753906 8.4160156 L 8.4804688 8.6972656 L 8.25 9.0273438 L 8.0917969 9.3984375 L 8.0058594 9.7949219 L 8.0058594 10.205078 L 8.0917969 10.601562 L 8.2480469 10.970703 L 8.4804688 11.306641 L 8.7773438 11.583984 L 9.1191406 11.798828 L 9.1660156 11.816406 L 9.4960938 11.9375 L 9.8964844 12.001953 L 10.302734 11.978516 L 10.697266 11.878906 L 11.058594 11.697266 L 11.380859 11.451172 L 11.644531 11.142578 L 11.839844 10.789062 L 11.960938 10.404297 L 12.001953 10 L 11.960938 9.5957031 L 11.839844 9.2109375 L 11.644531 8.8574219 L 11.380859 8.5488281 L 11.058594 8.3007812 L 10.697266 8.1230469 L 10.302734 8.0195312 L 9.8964844 8.0019531 z M 9.9472656 9.0058594 L 10.150391 9.0136719 L 10.345703 9.0664062 L 10.527344 9.1542969 L 10.6875 9.2773438 L 10.818359 9.4296875 L 10.916016 9.6074219 L 10.976562 9.7988281 L 10.996094 10 L 10.976562 10.201172 L 10.916016 10.392578 L 10.818359 10.570312 L 10.6875 10.722656 L 10.525391 10.845703 L 10.345703 10.9375 L 10.150391 10.986328 L 9.9472656 10.998047 L 9.75 10.966797 L 9.5683594 10.898438 L 9.3886719 10.787109 L 9.2421875 10.650391 L 9.1289062 10.486328 L 9.0488281 10.296875 L 9.0058594 10.099609 L 9.0058594 9.9003906 L 9.0488281 9.703125 L 9.1289062 9.5136719 L 9.2421875 9.3515625 L 9.390625 9.2109375 L 9.5625 9.1035156 L 9.7480469 9.0351562 L 9.9472656 9.0058594 z " style="fill:#222222; fill-opacity:1; stroke:none; stroke-width:0px;"/>
</g>
</svg>