<!DOCTYPE svg PUBLIC "-//W3C//DTD SVG 1.1//EN" "http://www.w3.org/Graphics/SVG/1.1/DTD/svg11.dtd">
<!-- Uploaded to: SVG Repo, www.svgrepo.com, Transformed by: SVG Repo Mixer Tools -->
<svg width="197px" height="197px" viewBox="-4.8 -4.8 57.60 57.60" id="a" xmlns="http://www.w3.org/2000/svg" fill="#000000" stroke="#000000" stroke-width="0.9600000000000002">
<g id="SVGRepo_bgCarrier" stroke-width="0">
<path transform="translate(-4.8, -4.8), scale(3.5999999999999996)" fill="#d1c7a3" d="M9.166.33a2.25 2.25 0 00-2.332 0l-5.25 3.182A2.25 2.25 0 00.5 5.436v5.128a2.25 2.25 0 001.084 1.924l5.25 3.182a2.25 2.25 0 002.332 0l5.25-3.182a2.25 2.25 0 001.084-1.924V5.436a2.25 2.25 0 00-1.084-1.924L9.166.33z" strokewidth="0"/>
</g>
<g id="SVGRepo_tracerCarrier" stroke-linecap="round" stroke-linejoin="round" stroke="#CCCCCC" stroke-width="1.344"> <defs> <style>.c{fill:none;stroke:#000000;stroke-linecap:round;stroke-linejoin:round;}</style> </defs> <circle id="b" class="c" cx="24" cy="24" r="21.5"/> <g> <circle class="c" cx="12.7059" cy="24" r="4.5"/> <circle class="c" cx="24" cy="24" r="4.5"/> <path class="c" d="m39.3254,26.002c-.7367,1.4806-2.2652,2.498-4.0313,2.498-2.4853,0-4.5-2.0147-4.5-4.5s2.0147-4.5,4.5-4.5c1.7664,0,3.2951,1.0178,4.0317,2.4989"/> </g> <line class="c" x1="17.2059" y1="24" x2="17.2059" y2="28.5"/> <line class="c" x1="19.5" y1="24" x2="19.5" y2="15"/> </g>
<g id="SVGRepo_iconCarrier"> <defs> <style>.c{fill:none;stroke:#000000;stroke-linecap:round;stroke-linejoin:round;}</style> </defs> <circle id="b" class="c" cx="24" cy="24" r="21.5"/> <g> <circle class="c" cx="12.7059" cy="24" r="4.5"/> <circle class="c" cx="24" cy="24" r="4.5"/> <path class="c" d="m39.3254,26.002c-.7367,1.4806-2.2652,2.498-4.0313,2.498-2.4853,0-4.5-2.0147-4.5-4.5s2.0147-4.5,4.5-4.5c1.7664,0,3.2951,1.0178,4.0317,2.4989"/> </g> <line class="c" x1="17.2059" y1="24" x2="17.2059" y2="28.5"/> <line class="c" x1="19.5" y1="24" x2="19.5" y2="15"/> </g>
</svg>